<svg xmlns="http://www.w3.org/2000/svg" version="1.1" xmlns:xlink="http://www.w3.org/1999/xlink" xmlns:svgjs="http://svgjs.dev/svgjs" width="1000" height="600" preserveAspectRatio="none" viewBox="0 0 1000 600"><g mask="url(&quot;#SvgjsMask1084&quot;)" fill="none"><rect width="1000" height="600" x="0" y="0" fill="rgba(239, 245, 249, 1)"></rect><path d="M898 517L581 834" stroke-width="10" stroke="url(&quot;#SvgjsLinearGradient1085&quot;)" stroke-linecap="round" class="TopRight"></path><path d="M686 558L414 830" stroke-width="8" stroke="url(&quot;#SvgjsLinearGradient1086&quot;)" stroke-linecap="round" class="BottomLeft"></path><path d="M747 47L1131 -337" stroke-width="8" stroke="url(&quot;#SvgjsLinearGradient1085&quot;)" stroke-linecap="round" class="TopRight"></path><path d="M837 188L1178 -153" stroke-width="10" stroke="url(&quot;#SvgjsLinearGradient1086&quot;)" stroke-linecap="round" class="BottomLeft"></path><path d="M657 252L889 20" stroke-width="8" stroke="url(&quot;#SvgjsLinearGradient1086&quot;)" stroke-linecap="round" class="BottomLeft"></path><path d="M414 7L180 241" stroke-width="8" stroke="url(&quot;#SvgjsLinearGradient1086&quot;)" stroke-linecap="round" class="BottomLeft"></path><path d="M818 358L631 545" stroke-width="6" stroke="url(&quot;#SvgjsLinearGradient1086&quot;)" stroke-linecap="round" class="BottomLeft"></path><path d="M960 405L753 612" stroke-width="8" stroke="url(&quot;#SvgjsLinearGradient1086&quot;)" stroke-linecap="round" class="BottomLeft"></path><path d="M278 293L48 523" stroke-width="8" stroke="url(&quot;#SvgjsLinearGradient1085&quot;)" stroke-linecap="round" class="TopRight"></path><path d="M187 208L357 38" stroke-width="8" stroke="url(&quot;#SvgjsLinearGradient1085&quot;)" stroke-linecap="round" class="TopRight"></path><path d="M618 121L789 -50" stroke-width="6" stroke="url(&quot;#SvgjsLinearGradient1086&quot;)" stroke-linecap="round" class="BottomLeft"></path><path d="M260 590L-111 961" stroke-width="10" stroke="url(&quot;#SvgjsLinearGradient1085&quot;)" stroke-linecap="round" class="TopRight"></path><path d="M156 504L-76 736" stroke-width="8" stroke="url(&quot;#SvgjsLinearGradient1086&quot;)" stroke-linecap="round" class="BottomLeft"></path><path d="M793 454L943 304" stroke-width="6" stroke="url(&quot;#SvgjsLinearGradient1085&quot;)" stroke-linecap="round" class="TopRight"></path><path d="M58 211L398 -129" stroke-width="6" stroke="url(&quot;#SvgjsLinearGradient1085&quot;)" stroke-linecap="round" class="TopRight"></path><path d="M109 264L302 71" stroke-width="6" stroke="url(&quot;#SvgjsLinearGradient1086&quot;)" stroke-linecap="round" class="BottomLeft"></path><path d="M650 49L300 399" stroke-width="10" stroke="url(&quot;#SvgjsLinearGradient1086&quot;)" stroke-linecap="round" class="BottomLeft"></path><path d="M83 300L275 108" stroke-width="8" stroke="url(&quot;#SvgjsLinearGradient1086&quot;)" stroke-linecap="round" class="BottomLeft"></path><path d="M527 501L949 79" stroke-width="6" stroke="url(&quot;#SvgjsLinearGradient1086&quot;)" stroke-linecap="round" class="BottomLeft"></path><path d="M709 510L300 919" stroke-width="8" stroke="url(&quot;#SvgjsLinearGradient1085&quot;)" stroke-linecap="round" class="TopRight"></path><path d="M530 13L734 -191" stroke-width="10" stroke="url(&quot;#SvgjsLinearGradient1086&quot;)" stroke-linecap="round" class="BottomLeft"></path><path d="M695 415L896 214" stroke-width="10" stroke="url(&quot;#SvgjsLinearGradient1086&quot;)" stroke-linecap="round" class="BottomLeft"></path><path d="M825 144L1206 -237" stroke-width="6" stroke="url(&quot;#SvgjsLinearGradient1085&quot;)" stroke-linecap="round" class="TopRight"></path><path d="M974 291L1247 18" stroke-width="8" stroke="url(&quot;#SvgjsLinearGradient1085&quot;)" stroke-linecap="round" class="TopRight"></path><path d="M422 434L50 806" stroke-width="6" stroke="url(&quot;#SvgjsLinearGradient1085&quot;)" stroke-linecap="round" class="TopRight"></path><path d="M441 377L103 715" stroke-width="10" stroke="url(&quot;#SvgjsLinearGradient1085&quot;)" stroke-linecap="round" class="TopRight"></path><path d="M64 20L-300 384" stroke-width="6" stroke="url(&quot;#SvgjsLinearGradient1086&quot;)" stroke-linecap="round" class="BottomLeft"></path><path d="M989 164L1367 -214" stroke-width="8" stroke="url(&quot;#SvgjsLinearGradient1086&quot;)" stroke-linecap="round" class="BottomLeft"></path><path d="M643 40L377 306" stroke-width="6" stroke="url(&quot;#SvgjsLinearGradient1086&quot;)" stroke-linecap="round" class="BottomLeft"></path><path d="M10 582L271 321" stroke-width="10" stroke="url(&quot;#SvgjsLinearGradient1086&quot;)" stroke-linecap="round" class="BottomLeft"></path></g><defs><mask id="SvgjsMask1084"><rect width="1000" height="600" fill="#ffffff"></rect></mask><linearGradient x1="0%" y1="100%" x2="100%" y2="0%" id="SvgjsLinearGradient1085"><stop stop-color="rgba(0, 153, 239, 0)" offset="0"></stop><stop stop-color="rgba(0, 153, 239, 0.3)" offset="1"></stop></linearGradient><linearGradient x1="100%" y1="0%" x2="0%" y2="100%" id="SvgjsLinearGradient1086"><stop stop-color="rgba(0, 153, 239, 0)" offset="0"></stop><stop stop-color="rgba(0, 153, 239, 0.3)" offset="1"></stop></linearGradient></defs></svg>